<svg width="18" height="17" viewBox="0 0 18 17" fill="none" xmlns="http://www.w3.org/2000/svg">
<path d="M8.99935 14.5394C6.91602 14.5394 5.07435 13.4727 3.99935 11.8727C4.02435 10.2061 7.33268 9.28939 8.99935 9.28939C10.666 9.28939 13.9743 10.2061 13.9993 11.8727C12.9243 13.4727 11.0827 14.5394 8.99935 14.5394ZM8.99935 2.70605C9.66239 2.70605 10.2983 2.96945 10.7671 3.43829C11.236 3.90713 11.4993 4.54301 11.4993 5.20605C11.4993 5.8691 11.236 6.50498 10.7671 6.97382C10.2983 7.44266 9.66239 7.70605 8.99935 7.70605C8.33631 7.70605 7.70042 7.44266 7.23158 6.97382C6.76274 6.50498 6.49935 5.8691 6.49935 5.20605C6.49935 4.54301 6.76274 3.90713 7.23158 3.43829C7.70042 2.96945 8.33631 2.70605 8.99935 2.70605ZM8.99935 0.206055C7.905 0.206055 6.82137 0.421603 5.81032 0.840392C4.79927 1.25918 3.88061 1.87301 3.10679 2.64683C1.54399 4.20963 0.666016 6.32925 0.666016 8.53939C0.666016 10.7495 1.54399 12.8691 3.10679 14.4319C3.88061 15.2058 4.79927 15.8196 5.81032 16.2384C6.82137 16.6572 7.905 16.8727 8.99935 16.8727C11.2095 16.8727 13.3291 15.9947 14.8919 14.4319C16.4547 12.8691 17.3327 10.7495 17.3327 8.53939C17.3327 3.93105 13.5827 0.206055 8.99935 0.206055Z" fill="#FF662D"/>
</svg>
