<svg width="73" height="56" viewBox="0 0 73 56" fill="none" xmlns="http://www.w3.org/2000/svg">
<g clip-path="url(#clip0_1702_865)">
<g opacity="0.5">
<path d="M42.314 37.5479C43.0919 38.2841 43.7726 38.8954 44.3352 39.3886L42.314 37.5479Z" fill="#E10F18"/>
</g>
<path d="M70.3608 5.99825C70.4789 5.64399 70.8192 4.42147 70.1108 3.60183C69.8677 3.32398 69.305 2.87943 68.291 3.07392C68.027 3.1156 67.7909 3.25452 67.6311 3.46985L67.6172 3.48374C67.5755 3.53237 67.5339 3.58794 67.4991 3.64351L43.6264 40.2705L44.3418 40.8678L44.1265 41.111L43.3903 40.6317L37.7572 49.2727C36.764 50.8008 35.0831 51.676 33.2633 51.6066C31.4435 51.5441 29.8321 50.5508 28.9499 48.9531L4.16037 4.15057L6.81367 3.69907L3.02821 2.23344C2.7087 2.10841 1.86131 1.90697 1.01393 2.76135C0.465207 3.31009 0.291562 4.11584 0.527719 4.97716L0.562448 5.10219L25.7896 50.6966C27.2899 53.4126 30.0404 55.0935 33.1313 55.2047C33.2424 55.2047 33.3466 55.2047 33.4578 55.2047C36.4236 55.2047 39.1603 53.7182 40.7856 51.2315L46.6339 42.2571L70.1316 6.21358C69.8538 6.63034 69.3189 6.804 68.8536 6.61645C68.7702 6.58172 68.6869 6.54004 68.6174 6.48448L69.1383 5.68567L70.3608 5.99825Z" fill="url(#paint0_linear_1702_865)"/>
<path d="M70.6945 2.78256C69.611 2.23381 68.3399 2.52555 67.6036 3.49801L66.145 5.71382L66.5548 5.67909C67.2841 5.54017 67.8815 6.25562 67.6175 6.94329L56.2959 36.7769C55.5249 38.8121 53.8649 40.2708 51.7464 40.7779C50.0447 41.1808 48.3082 40.9099 46.8635 40.0069C46.7315 39.9096 46.3773 39.6387 45.8355 39.1803L45.4743 38.8955L45.0854 38.5412C44.4533 37.9855 43.7865 37.3812 43.085 36.7144L4.41081 1.46974C3.45229 0.60147 2.02146 0.545901 1.00737 1.35165C-0.0136582 2.1574 -0.298436 3.56052 0.333632 4.69274L5.20263 13.4935L3.91766 8.85347C3.6051 7.71431 4.97342 6.87383 5.84859 7.67263L42.064 40.6945L43.4392 41.9448C44.0574 42.4797 44.5158 42.827 44.8562 43.0284C46.4745 44.0495 48.3568 44.5774 50.2461 44.5774C51.024 44.5774 51.8089 44.4871 52.5729 44.3065C55.8236 43.5286 58.4769 41.2016 59.6646 38.0758L71.8892 5.87358C72.3407 4.6858 71.8267 3.35908 70.6945 2.7895V2.78256Z" fill="url(#paint1_linear_1702_865)"/>
<path d="M42.3137 18.5361C40.1118 18.5361 38.3198 20.3282 38.3198 22.5302C38.3198 24.7321 40.1118 26.5242 42.3137 26.5242C44.5155 26.5242 46.3075 24.7321 46.3075 22.5302C46.3075 20.3282 44.5155 18.5361 42.3137 18.5361Z" fill="#EB5C47"/>
</g>
<defs>
<linearGradient id="paint0_linear_1702_865" x1="0.416586" y1="28.6635" x2="70.5483" y2="28.6635" gradientUnits="userSpaceOnUse">
<stop stop-color="#F9B878"/>
<stop offset="1" stop-color="#F49C81"/>
</linearGradient>
<linearGradient id="paint1_linear_1702_865" x1="0.000233422" y1="22.6763" x2="72.049" y2="22.6763" gradientUnits="userSpaceOnUse">
<stop stop-color="#F7A637"/>
<stop offset="1" stop-color="#EB5C4A"/>
</linearGradient>
<clipPath id="clip0_1702_865">
<rect width="72.0488" height="54.4368" fill="white" transform="translate(0 0.781738)"/>
</clipPath>
</defs>
</svg>
