<svg width="100" height="86" viewBox="0 0 100 86" fill="none" xmlns="http://www.w3.org/2000/svg">
<path d="M49.4286 62.3036C45.3478 62.3036 41.2301 61.1034 37.6294 58.6013C28.2583 52.0831 25.9409 39.1483 32.4591 29.7772C38.9773 20.4061 51.9122 18.0887 61.2833 24.6069C70.6543 31.1251 72.9717 44.06 66.4535 53.4311C62.4373 59.2015 55.9838 62.3036 49.4286 62.3036ZM35.4966 31.8914C30.1417 39.5914 32.0436 50.2181 39.7436 55.5731C47.4436 60.928 58.0703 59.026 63.4252 51.3261C68.7801 43.6261 66.8782 33.0086 59.1782 27.6445C51.4782 22.2896 40.8608 24.1915 35.4966 31.8914Z" fill="url(#paint0_linear_2409_1521)"/>
<path d="M9.45943 51.8246C8.1484 51.8246 6.98509 50.8922 6.73581 49.5534C4.60308 37.9204 7.14205 26.1765 13.8911 16.4731C19.1721 8.89309 26.5582 3.25198 35.2553 0.168292C36.6956 -0.348734 38.2836 0.408339 38.7914 1.84862C39.2992 3.28891 38.5513 4.87691 37.111 5.38471C29.5126 8.08062 23.0498 13.0108 18.4427 19.6398C12.5431 28.1154 10.3273 38.382 12.1923 48.5471C12.4693 50.052 11.4721 51.4923 9.96722 51.7693C9.80103 51.797 9.62561 51.8154 9.45943 51.8154V51.8246Z" fill="url(#paint1_linear_2409_1521)"/>
<path d="M90.5664 51.8246C90.4002 51.8246 90.234 51.8061 90.0678 51.7785C88.5629 51.5015 87.5658 50.0612 87.8427 48.5563C90.5571 33.7472 84.3251 18.6242 71.9811 10.0379C69.1837 8.08982 66.1277 6.52028 62.9055 5.37544C61.4652 4.85841 60.7082 3.27964 61.2252 1.83936C61.7422 0.399071 63.321 -0.34877 64.7613 0.159023C68.4451 1.47005 71.935 3.27041 75.1387 5.49546C89.2646 15.3189 96.3829 32.6208 93.2807 49.5626C93.0407 50.9014 91.8682 51.8338 90.5571 51.8338L90.5664 51.8246Z" fill="url(#paint2_linear_2409_1521)"/>
<path d="M50.0442 85.6528C41.3193 85.6528 32.5392 83.0492 24.8853 77.722C22.651 76.1709 20.5368 74.3798 18.5887 72.404C17.5177 71.3146 17.5362 69.5604 18.6256 68.4894C19.7151 67.4184 21.4693 67.4369 22.5403 68.5264C24.239 70.2621 26.0948 71.8224 28.0429 73.1796C43.5167 83.954 64.3085 81.9967 77.4742 68.5264C78.5452 67.4369 80.2994 67.4092 81.3888 68.4802C82.4782 69.5512 82.5059 71.3054 81.435 72.3948C72.8764 81.1473 61.511 85.6528 50.0349 85.6528H50.0442Z" fill="url(#paint3_linear_2409_1521)"/>
<defs>
<linearGradient id="paint0_linear_2409_1521" x1="32.4251" y1="29.8263" x2="66.415" y2="53.4764" gradientUnits="userSpaceOnUse">
<stop stop-color="#F6A03C" stop-opacity="0.4"/>
<stop offset="1" stop-color="#EC6636"/>
</linearGradient>
<linearGradient id="paint1_linear_2409_1521" x1="6.00644" y1="25.9088" x2="38.9576" y2="25.9088" gradientUnits="userSpaceOnUse">
<stop stop-color="#F6A03C" stop-opacity="0.4"/>
<stop offset="1" stop-color="#EC6636"/>
</linearGradient>
<linearGradient id="paint2_linear_2409_1521" x1="61.0682" y1="25.9087" x2="94.0009" y2="25.9087" gradientUnits="userSpaceOnUse">
<stop stop-color="#F6A03C" stop-opacity="0.4"/>
<stop offset="1" stop-color="#EC6636"/>
</linearGradient>
<linearGradient id="paint3_linear_2409_1521" x1="17.7947" y1="76.6695" x2="82.229" y2="76.6695" gradientUnits="userSpaceOnUse">
<stop stop-color="#F6A03C" stop-opacity="0.4"/>
<stop offset="1" stop-color="#EC6636"/>
</linearGradient>
</defs>
</svg>
