<svg width="100" height="90" viewBox="0 0 100 90" fill="none" xmlns="http://www.w3.org/2000/svg">
<path d="M7.65459 56.8586C7.36375 56.8586 7.06644 56.7778 6.80468 56.6096C6.06465 56.1375 5.84813 55.1578 6.31994 54.4173C9.66464 49.1626 15.1228 46.3526 20.4 43.6364C22.1741 42.7245 24.0064 41.7803 25.6933 40.7682C32.4344 36.7326 38.1899 30.6502 41.8998 23.6429C43.089 21.3956 44.136 18.9477 45.1475 16.5807C47.6843 10.6503 50.3084 4.51612 55.5597 0.344758C56.248 -0.201723 57.2434 -0.0853128 57.7895 0.600213C58.3356 1.28574 58.2193 2.28816 57.5342 2.83141C52.9098 6.50479 50.5572 12.0052 48.0656 17.8289C47.0283 20.2541 45.9554 22.7634 44.7048 25.1272C40.7267 32.6389 34.5544 39.1611 27.3221 43.4909C25.5479 44.5547 23.6671 45.5216 21.8477 46.4561C16.7192 49.098 11.8751 51.5911 8.99247 56.1181C8.6887 56.5935 8.17488 56.8522 7.65136 56.8522L7.65459 56.8586Z" fill="url(#paint0_linear_2409_1503)"/>
<path d="M13.8586 68.6387C13.39 68.6387 12.9247 68.4318 12.6112 68.0373C12.0683 67.3485 12.1846 66.3493 12.873 65.8061C33.9106 49.1562 52.6118 28.3414 66.9569 5.61559C67.4255 4.87509 68.4046 4.65197 69.1479 5.12084C69.8879 5.58972 70.1109 6.5695 69.6423 7.31323C55.1066 30.3398 36.1598 51.4262 14.8442 68.2992C14.5534 68.5288 14.2044 68.642 13.8618 68.642L13.8586 68.6387Z" fill="url(#paint1_linear_2409_1503)"/>
<path d="M45.1912 90C44.7356 90 44.2831 89.8027 43.9665 89.4244C43.4074 88.7485 43.5011 87.7461 44.1765 87.1867C48.3097 83.7591 50.1776 78.6403 52.1585 73.2207C52.8598 71.3 53.5869 69.3113 54.4207 67.4196C57.8138 59.701 63.5143 52.7584 70.4687 47.8757C72.6565 46.3397 75.0123 44.9622 77.2874 43.6299C82.7552 40.4319 87.9161 37.4117 90.9829 32.364C91.4385 31.6138 92.4145 31.3745 93.1642 31.8305C93.9139 32.2864 94.1531 33.263 93.6974 34.0132C90.2137 39.7464 84.4583 43.1158 78.8903 46.372C76.6702 47.6719 74.3725 49.0139 72.2913 50.4755C65.8055 55.0316 60.4896 61.5021 57.3258 68.6969C56.5341 70.498 55.8264 72.435 55.1413 74.3105C53.1022 79.8884 50.9952 85.6572 46.2027 89.6313C45.9054 89.8771 45.5467 89.9967 45.1912 89.9967V90Z" fill="url(#paint2_linear_2409_1503)"/>
<path d="M32.7306 85.308C32.4494 85.308 32.1683 85.2336 31.9097 85.0784C31.16 84.6225 30.9209 83.6459 31.3733 82.8957C45.4501 59.6331 64.0027 38.1942 85.0274 20.9009C85.7028 20.3447 86.7046 20.4417 87.2604 21.1175C87.8163 21.7966 87.7193 22.7958 87.0439 23.352C66.2939 40.4222 47.9837 61.5797 34.0878 84.5384C33.7905 85.0332 33.2638 85.3048 32.7273 85.3048L32.7306 85.308Z" fill="url(#paint3_linear_2409_1503)"/>
<path d="M21.0146 78.899C20.6365 78.899 20.2552 78.7631 19.9514 78.4915C19.2986 77.903 19.2469 76.9006 19.8351 76.2474L76.3201 13.5217C76.9082 12.8718 77.91 12.8168 78.5628 13.4053C79.2156 13.9938 79.2673 14.9963 78.6791 15.6495L22.1974 78.3751C21.8839 78.7243 21.4509 78.899 21.0179 78.899H21.0146Z" fill="url(#paint4_linear_2409_1503)"/>
<defs>
<linearGradient id="paint0_linear_2409_1503" x1="71.4365" y1="12.2348" x2="7.79495" y2="38.4022" gradientUnits="userSpaceOnUse">
<stop stop-color="#F6A03C"/>
<stop offset="1" stop-color="#EC6636"/>
</linearGradient>
<linearGradient id="paint1_linear_2409_1503" x1="75.666" y1="22.5209" x2="12.0309" y2="48.6852" gradientUnits="userSpaceOnUse">
<stop stop-color="#F6A03C"/>
<stop offset="1" stop-color="#EC6636"/>
</linearGradient>
<linearGradient id="paint2_linear_2409_1503" x1="88.1294" y1="52.8263" x2="24.4943" y2="78.9906" gradientUnits="userSpaceOnUse">
<stop stop-color="#F6A03C"/>
<stop offset="1" stop-color="#EC6636"/>
</linearGradient>
<linearGradient id="paint3_linear_2409_1503" x1="83.9997" y1="42.7924" x2="20.3647" y2="68.9567" gradientUnits="userSpaceOnUse">
<stop stop-color="#F6A03C"/>
<stop offset="1" stop-color="#EC6636"/>
</linearGradient>
<linearGradient id="paint4_linear_2409_1503" x1="80.0816" y1="33.2597" x2="16.4498" y2="59.424" gradientUnits="userSpaceOnUse">
<stop stop-color="#F6A03C"/>
<stop offset="1" stop-color="#EC6636"/>
</linearGradient>
</defs>
</svg>
