<svg width="100" height="101" viewBox="0 0 100 101" fill="none" xmlns="http://www.w3.org/2000/svg">
<path d="M63.3655 71.3806C62.6408 71.3806 61.9121 71.114 61.344 70.573L45.6263 55.6452C44.451 54.5279 44.4 52.6659 45.5166 51.4898C46.6331 50.3138 48.494 50.2628 49.6693 51.3801L65.3871 66.3079C66.5624 67.4252 66.6133 69.2872 65.4967 70.4632C64.9208 71.0709 64.1412 71.3806 63.3655 71.3806Z" fill="url(#paint0_linear_2409_1556)"/>
<path d="M47.6492 56.4527C46.0273 56.4527 44.7109 55.1355 44.7109 53.5126V17.9218C44.7109 16.2988 46.0273 14.9817 47.6492 14.9817C49.2711 14.9817 50.5875 16.2988 50.5875 17.9218V53.5126C50.5875 55.1355 49.2711 56.4527 47.6492 56.4527Z" fill="url(#paint1_linear_2409_1556)"/>
<path d="M49.9655 100.064C24.2224 100.064 2.29912 80.2244 0.167903 54.1085C-2.07693 26.6127 18.4517 2.4137 45.9264 0.167468C56.2925 -0.679279 66.5137 1.69633 75.4931 7.03554C76.8878 7.86661 77.3461 9.66986 76.5156 11.0654C75.685 12.461 73.8829 12.9197 72.4882 12.0886C64.5628 7.37268 55.5403 5.27932 46.4043 6.02414C22.1539 8.00773 4.03859 29.3607 6.02094 53.6263C8.00328 77.8919 29.3507 96.0146 53.5932 94.035C77.8437 92.0514 95.959 70.6984 93.9767 46.4328C93.8513 44.8961 93.6319 43.332 93.3067 41.6464C93.0011 40.0509 94.0433 38.5103 95.6378 38.2045C97.2323 37.8987 98.7719 38.9415 99.0775 40.537C99.4418 42.4343 99.6886 44.2062 99.8297 45.9546C100.919 59.2752 96.7582 72.2195 88.1158 82.4079C79.4734 92.5963 67.3835 98.8058 54.0712 99.8956C52.6922 100.009 51.321 100.064 49.9616 100.064H49.9655Z" fill="url(#paint2_linear_2409_1556)"/>
<defs>
<linearGradient id="paint0_linear_2409_1556" x1="54.4502" y1="56.0543" x2="50.4024" y2="60.3171" gradientUnits="userSpaceOnUse">
<stop stop-color="#EC6636"/>
<stop offset="1" stop-color="#F6A03C"/>
</linearGradient>
<linearGradient id="paint1_linear_2409_1556" x1="44.7109" y1="35.7152" x2="50.5875" y2="35.7152" gradientUnits="userSpaceOnUse">
<stop stop-color="#EC6636"/>
<stop offset="1" stop-color="#F6A03C"/>
</linearGradient>
<linearGradient id="paint2_linear_2409_1556" x1="0.191475" y1="53.9331" x2="99.859" y2="45.7965" gradientUnits="userSpaceOnUse">
<stop stop-color="#EC6636"/>
<stop offset="1" stop-color="#F6A03C" stop-opacity="0.5"/>
</linearGradient>
</defs>
</svg>
