<svg width="240" height="60" viewBox="0 0 240 60" fill="none" xmlns="http://www.w3.org/2000/svg">
<path d="M97.4041 44.3521H92.1836V19.1417H97.4041V22.5839C98.7702 19.931 100.949 18.6208 103.966 18.6208C105.121 18.6208 106.43 18.8813 106.983 19.0928L107.43 19.2474L106.877 24.0242C105.828 23.6336 104.804 23.4465 103.804 23.4465C102.259 23.4465 100.917 23.8696 99.5752 24.8624C98.2335 25.8634 97.3959 27.9059 97.3959 30.6157V44.3521H97.4041Z" fill="#010101"/>
<path d="M109.437 22.34C111.877 19.8417 114.975 18.6129 118.78 18.6129C126.001 18.5316 131.035 24.1303 130.905 30.8275C130.905 31.7227 130.823 32.5364 130.693 33.2444H111.145C111.275 35.1649 112.064 36.7599 113.536 38.0538C115.007 39.3395 116.821 39.9987 118.967 39.9987C122.196 39.9987 124.716 38.5583 126.522 35.6938L130.352 38.4769C129.221 40.5032 127.619 42.0738 125.546 43.2049C123.472 44.336 121.269 44.8894 118.959 44.8894C115.154 44.8894 112.007 43.628 109.51 41.1298C107.014 38.6315 105.762 35.5392 105.762 31.7796C105.762 28.0201 106.998 24.8464 109.437 22.3481V22.34ZM125.627 29.3546C125.473 27.5969 124.733 26.124 123.424 24.9928C122.114 23.8617 120.537 23.3084 118.723 23.3084C116.804 23.3084 115.178 23.8617 113.812 24.9928C112.446 26.124 111.608 27.5643 111.267 29.3546H125.619H125.627Z" fill="#010101"/>
<path d="M139.573 44.352L129.652 19.1416H135.239L142.663 39.2579L150.087 19.1416H155.673L145.753 44.352H139.557H139.573Z" fill="#010101"/>
<path d="M156.121 10.6786C156.121 9.73468 156.414 8.96974 157.016 8.36755C157.617 7.76537 158.382 7.47241 159.325 7.47241C160.268 7.47241 161.057 7.76537 161.659 8.36755C162.26 8.96974 162.553 9.73468 162.553 10.6786C162.553 11.6226 162.269 12.3875 161.659 12.9897C161.049 13.5919 160.268 13.8849 159.325 13.8849C158.382 13.8849 157.617 13.5919 157.016 12.9897C156.414 12.3875 156.121 11.6226 156.121 10.6786ZM161.919 44.3441H156.723V19.1418H161.919V44.3522V44.3441Z" fill="#010101"/>
<path d="M166.141 44.3522V7.37476H171.337V22.5759C173.41 19.923 176.403 18.6128 180.314 18.6128C183.933 18.6128 186.949 19.8172 189.364 22.2341C191.755 24.651 192.959 27.7758 192.959 31.6087C192.959 35.4415 191.755 38.6233 189.34 41.1134C186.925 43.6117 183.908 44.873 180.314 44.873C176.403 44.873 173.41 43.5629 171.337 40.91V44.3522H166.141ZM173.752 37.6793C175.329 39.3638 177.297 40.202 179.68 40.202C182.062 40.202 184.014 39.3638 185.502 37.6793C186.998 36.0274 187.763 34.0011 187.763 31.6087C187.763 29.2162 186.998 27.2794 185.502 25.6763C184.006 24.0732 182.062 23.2838 179.68 23.2838C177.297 23.2838 175.297 24.0732 173.719 25.6763C172.142 27.2794 171.361 29.2732 171.361 31.6087C171.361 33.9442 172.15 35.9948 173.752 37.6793Z" fill="#010101"/>
<path d="M197.203 22.34C199.643 19.8417 202.741 18.6129 206.546 18.6129C213.767 18.5316 218.801 24.1303 218.671 30.8275C218.671 31.7227 218.589 32.5364 218.459 33.2444H198.911C199.041 35.1649 199.83 36.7599 201.301 38.0538C202.773 39.3395 204.579 39.9987 206.733 39.9987C209.962 39.9987 212.482 38.5583 214.288 35.6938L218.118 38.4769C216.987 40.5032 215.385 42.0738 213.312 43.2049C211.238 44.336 209.035 44.8894 206.725 44.8894C202.92 44.8894 199.773 43.628 197.276 41.1298C194.78 38.6315 193.52 35.5392 193.52 31.7796C193.52 28.0201 194.756 24.8464 197.195 22.3481L197.203 22.34ZM213.393 29.3546C213.239 27.5969 212.499 26.124 211.19 24.9928C209.88 23.8617 208.303 23.3084 206.489 23.3084C204.57 23.3084 202.944 23.8617 201.578 24.9928C200.212 26.124 199.374 27.5643 199.033 29.3546H213.385H213.393Z" fill="#010101"/>
<path d="M222.987 35.9216C224.459 38.5256 226.947 40.0962 230.021 40.0962C232.778 40.0962 234.745 38.9894 234.745 37.3131C234.745 36.4505 234.38 35.7914 233.615 35.3438C232.851 34.9206 231.493 34.4731 229.492 34.0336C226.524 33.3745 224.638 32.6909 222.881 31.511C221.101 30.331 220.231 28.5407 220.231 26.1238C220.231 23.8941 221.125 22.0794 222.906 20.6879C224.687 19.2964 226.89 18.6128 229.541 18.6128C231.769 18.6128 233.77 19.1092 235.526 20.0857C237.283 21.0866 238.6 22.3154 239.519 23.8127L236.03 26.8074C234.428 24.5207 232.249 23.3652 229.549 23.3652C227.029 23.3652 225.378 24.4393 225.378 26.0425C225.508 27.2224 225.906 27.8327 227.427 28.378C228.476 28.7686 229.183 28.9557 230.94 29.3789C233.908 30.1113 235.794 30.7948 237.502 32.0318C239.177 33.2687 239.999 34.9695 239.999 37.3131C239.999 39.6567 239.031 41.3819 237.087 42.7735C235.144 44.165 232.786 44.873 230.029 44.873C227.59 44.873 225.41 44.344 223.491 43.2943C221.572 42.2689 220.109 40.853 219.133 39.0383L222.987 35.9134V35.9216Z" fill="#010101"/>
<g clip-path="url(#clip0_2608_737)">
<g opacity="0.5">
<path d="M46.1602 40.1082C47.0088 40.9114 47.7514 41.5782 48.3651 42.1162L46.1602 40.1082Z" fill="#E10F18"/>
</g>
<path d="M76.7585 5.69073C76.8873 5.30427 77.2586 3.97061 76.4857 3.07646C76.2205 2.77336 75.6068 2.28839 74.5005 2.50056C74.2126 2.54603 73.9549 2.69758 73.7807 2.93249L73.7655 2.94764C73.72 3.00068 73.6746 3.0613 73.6367 3.12192L47.5938 43.0785L48.3742 43.7302L48.1393 43.9954L47.3362 43.4726L41.191 52.8991C40.1075 54.5662 38.2738 55.5209 36.2886 55.4452C34.3033 55.377 32.5454 54.2934 31.5831 52.5505L4.54 3.67509L7.4345 3.18255L3.30491 1.58367C2.95636 1.44728 2.03194 1.22753 1.10752 2.15957C0.508919 2.7582 0.319488 3.6372 0.577114 4.57682L0.615 4.71322L28.1355 54.4525C29.7722 57.4153 32.7727 59.2491 36.1446 59.3704C36.2658 59.3704 36.3795 59.3704 36.5007 59.3704C39.7362 59.3704 42.7216 57.7488 44.4947 55.036L50.8747 45.2457L76.5085 5.92563C76.2054 6.38029 75.6219 6.56973 75.1142 6.36513C75.0233 6.32724 74.9324 6.28178 74.8566 6.22116L75.4249 5.34974L76.7585 5.69073Z" fill="url(#paint0_linear_2608_737)"/>
<path d="M77.1223 2.18226C75.9402 1.58363 74.5536 1.90189 73.7504 2.96275L72.1592 5.38L72.6063 5.34212C73.4019 5.19057 74.0535 5.97106 73.7656 6.72124L61.4147 39.267C60.5736 41.4872 58.7627 43.0785 56.4516 43.6317C54.5952 44.0712 52.7009 43.7756 51.1248 42.7906C50.9809 42.6845 50.5944 42.3889 50.0034 41.8888L49.6094 41.5781L49.1851 41.1917C48.4955 40.5855 47.7681 39.9262 47.0028 39.1988L4.81286 0.750099C3.7672 -0.1971 2.20629 -0.25772 1.10002 0.62128C-0.0138345 1.50028 -0.324501 3.03095 0.365027 4.2661L5.67666 13.8669L4.27487 8.80507C3.9339 7.56235 5.42661 6.64546 6.38134 7.51688L45.889 43.5407L47.3893 44.9047C48.0636 45.4882 48.5637 45.8671 48.935 46.0868C50.7005 47.2007 52.7539 47.7766 54.8149 47.7766C55.6636 47.7766 56.5198 47.6781 57.3533 47.4811C60.8995 46.6324 63.794 44.0939 65.0897 40.684L78.4256 5.55429C78.9181 4.25852 78.3574 2.8112 77.1223 2.18984V2.18226Z" fill="url(#paint1_linear_2608_737)"/>
<path d="M46.1616 19.3684C43.7596 19.3684 41.8047 21.3234 41.8047 23.7255C41.8047 26.1276 43.7596 28.0826 46.1616 28.0826C48.5636 28.0826 50.5185 26.1276 50.5185 23.7255C50.5185 21.3234 48.5636 19.3684 46.1616 19.3684Z" fill="#EB5C47"/>
</g>
<defs>
<linearGradient id="paint0_linear_2608_737" x1="0.455878" y1="30.4164" x2="76.9631" y2="30.4164" gradientUnits="userSpaceOnUse">
<stop stop-color="#F9B878"/>
<stop offset="1" stop-color="#F49C81"/>
</linearGradient>
<linearGradient id="paint1_linear_2608_737" x1="0.00131998" y1="23.8845" x2="78.5998" y2="23.8845" gradientUnits="userSpaceOnUse">
<stop stop-color="#F7A637"/>
<stop offset="1" stop-color="#EB5C4A"/>
</linearGradient>
<clipPath id="clip0_2608_737">
<rect width="78.5985" height="59.3856" fill="white"/>
</clipPath>
</defs>
</svg>
