<svg width="1237" height="306" viewBox="0 0 1237 306" fill="none" xmlns="http://www.w3.org/2000/svg">
<path d="M501.9 228.536H475V98.6328H501.9V116.37C508.939 102.7 520.168 95.9492 535.713 95.9492C541.663 95.9492 548.409 97.291 551.258 98.3812L553.563 99.1779L550.714 123.792C545.309 121.779 540.029 120.815 534.875 120.815C526.914 120.815 520.001 122.995 513.087 128.111C506.174 133.268 501.858 143.793 501.858 157.756V228.536H501.9Z" fill="#010101"/>
<path d="M563.913 115.112C576.483 102.239 592.447 95.9072 612.056 95.9072C649.263 95.4879 675.2 124.337 674.529 158.846C674.529 163.459 674.11 167.652 673.44 171.3H572.712C573.382 181.196 577.446 189.414 585.03 196.081C592.614 202.706 601.958 206.103 613.02 206.103C629.654 206.103 642.643 198.681 651.945 183.921L671.68 198.262C665.856 208.703 657.602 216.795 646.917 222.624C636.232 228.452 624.877 231.304 612.978 231.304C593.368 231.304 577.153 224.804 564.29 211.931C551.426 199.058 544.974 183.125 544.974 163.752C544.974 144.38 551.342 128.027 563.913 115.154V115.112ZM647.336 151.257C646.54 142.199 642.727 134.61 635.981 128.781C629.235 122.953 621.106 120.102 611.763 120.102C601.874 120.102 593.494 122.953 586.455 128.781C579.416 134.61 575.1 142.032 573.34 151.257H647.294H647.336Z" fill="#010101"/>
<path d="M719.195 228.536L668.076 98.6328H696.862L735.117 202.287L773.372 98.6328H802.157L751.039 228.536H719.111H719.195Z" fill="#010101"/>
<path d="M804.462 55.0241C804.462 50.1601 805.97 46.2185 809.071 43.1156C812.172 40.0127 816.11 38.5032 820.971 38.5032C825.831 38.5032 829.895 40.0127 832.996 43.1156C836.097 46.2185 837.605 50.1601 837.605 55.0241C837.605 59.8882 836.138 63.8297 832.996 66.9327C829.853 70.0356 825.831 71.5451 820.971 71.5451C816.11 71.5451 812.172 70.0356 809.071 66.9327C805.97 63.8297 804.462 59.8882 804.462 55.0241ZM834.337 228.494H807.563V98.6328H834.337V228.536V228.494Z" fill="#010101"/>
<path d="M856.083 228.536V38H882.857V116.328C893.542 102.658 908.961 95.9072 929.115 95.9072C947.761 95.9072 963.306 102.113 975.75 114.567C988.069 127.02 994.27 143.122 994.27 162.872C994.27 182.621 988.069 199.017 975.624 211.848C963.18 224.72 947.635 231.22 929.115 231.22C908.961 231.22 893.542 224.469 882.857 210.799V228.536H856.083ZM895.302 194.152C903.43 202.832 913.57 207.151 925.847 207.151C938.124 207.151 948.18 202.832 955.848 194.152C963.557 185.64 967.496 175.199 967.496 162.872C967.496 150.544 963.557 140.564 955.848 132.304C948.138 124.043 938.124 119.976 925.847 119.976C913.57 119.976 903.263 124.043 895.134 132.304C887.005 140.564 882.983 150.837 882.983 162.872C882.983 174.906 887.047 185.473 895.302 194.152Z" fill="#010101"/>
<path d="M1016.14 115.112C1028.71 102.239 1044.68 95.9072 1064.29 95.9072C1101.49 95.4879 1127.43 124.337 1126.76 158.846C1126.76 163.459 1126.34 167.652 1125.67 171.3H1024.94C1025.61 181.196 1029.68 189.414 1037.26 196.081C1044.84 202.706 1054.15 206.103 1065.25 206.103C1081.88 206.103 1094.87 198.681 1104.17 183.921L1123.91 198.262C1118.09 208.703 1109.83 216.795 1099.15 222.624C1088.46 228.452 1077.11 231.304 1065.21 231.304C1045.6 231.304 1029.38 224.804 1016.52 211.931C1003.66 199.058 997.161 183.125 997.161 163.752C997.161 144.38 1003.53 128.027 1016.1 115.154L1016.14 115.112ZM1099.57 151.257C1098.77 142.199 1094.96 134.61 1088.21 128.781C1081.46 122.953 1073.34 120.102 1063.99 120.102C1054.1 120.102 1045.72 122.953 1038.68 128.781C1031.65 134.61 1027.33 142.032 1025.57 151.257H1099.52H1099.57Z" fill="#010101"/>
<path d="M1149.01 185.095C1156.59 198.513 1169.41 206.606 1185.25 206.606C1199.46 206.606 1209.6 200.903 1209.6 192.266C1209.6 187.821 1207.71 184.424 1203.77 182.118C1199.83 179.938 1192.84 177.632 1182.53 175.367C1167.23 171.971 1157.51 168.449 1148.46 162.368C1139.29 156.288 1134.8 147.064 1134.8 134.61C1134.8 123.121 1139.41 113.77 1148.59 106.6C1157.76 99.4295 1169.12 95.9072 1182.78 95.9072C1194.26 95.9072 1204.57 98.465 1213.62 103.497C1222.67 108.654 1229.46 114.986 1234.19 122.701L1216.22 138.132C1207.96 126.349 1196.73 120.395 1182.82 120.395C1169.83 120.395 1161.33 125.93 1161.33 134.191C1162 140.271 1164.05 143.415 1171.89 146.225C1177.29 148.238 1180.94 149.202 1189.99 151.382C1205.28 155.156 1215 158.679 1223.8 165.052C1232.43 171.426 1236.66 180.189 1236.66 192.266C1236.66 204.342 1231.68 213.231 1221.66 220.402C1211.65 227.572 1199.5 231.22 1185.29 231.22C1172.72 231.22 1161.49 228.494 1151.61 223.085C1141.72 217.802 1134.18 210.506 1129.15 201.155L1149.01 185.053V185.095Z" fill="#010101"/>
<g clip-path="url(#clip0_1399_850)">
<g opacity="0.5">
<path d="M237.854 206.668C242.227 210.807 246.053 214.243 249.216 217.015L237.854 206.668Z" fill="#E10F18"/>
</g>
<path d="M395.512 29.3233C396.176 27.3319 398.089 20.4599 394.107 15.8525C392.74 14.2907 389.578 11.7918 383.877 12.8851C382.394 13.1194 381.066 13.9003 380.168 15.1107L380.09 15.1888C379.856 15.4621 379.621 15.7744 379.426 16.0868L245.233 221.974L249.255 225.332L248.044 226.699L243.906 224.004L212.241 272.577C206.658 281.167 197.209 286.087 186.98 285.696C176.751 285.345 167.692 279.761 162.734 270.781L23.387 18.9371L38.3017 16.3992L17.0229 8.16057C15.2269 7.45775 10.4636 6.32542 5.70023 11.128C2.61578 14.2126 1.63969 18.7419 2.96717 23.5836L3.16239 24.2864L144.969 280.581C153.402 295.848 168.864 305.297 186.238 305.922C186.863 305.922 187.449 305.922 188.073 305.922C204.745 305.922 220.128 297.566 229.264 283.588L262.139 233.141L394.224 30.5337C392.662 32.8764 389.656 33.8525 387.04 32.7983C386.571 32.6031 386.103 32.3688 385.712 32.0564L388.641 27.5662L395.512 29.3233Z" fill="url(#paint0_linear_1399_850)"/>
<path d="M397.386 11.2451C391.296 8.16049 384.151 9.8004 380.012 15.2668L371.813 27.7223L374.116 27.5271C378.216 26.7462 381.574 30.7679 380.09 34.6334L316.449 202.334C312.115 213.774 302.784 221.974 290.875 224.824C281.31 227.089 271.549 225.566 263.428 220.49C262.686 219.944 260.695 218.421 257.649 215.844L255.619 214.243L253.432 212.252C249.879 209.128 246.131 205.731 242.188 201.983L24.7927 3.86548C19.4047 -1.01522 11.3617 -1.32758 5.6613 3.2017C-0.0781218 7.73099 -1.67891 15.6182 1.87406 21.9826L29.2437 71.4533L22.0206 45.3709C20.2636 38.9674 27.9552 34.2429 32.8747 38.7332L236.448 224.356L244.179 231.384C247.654 234.39 250.231 236.343 252.144 237.475C261.241 243.215 271.822 246.182 282.442 246.182C286.815 246.182 291.227 245.675 295.522 244.659C313.794 240.286 328.709 227.206 335.385 209.636L404.102 28.6204C406.64 21.9436 403.751 14.4859 397.386 11.2841V11.2451Z" fill="url(#paint1_linear_1399_850)"/>
<path d="M237.854 99.8004C225.477 99.8004 215.404 109.874 215.404 122.252C215.404 134.629 225.477 144.703 237.854 144.703C250.231 144.703 260.304 134.629 260.304 122.252C260.304 109.874 250.231 99.8004 237.854 99.8004Z" fill="#EB5C47"/>
</g>
<defs>
<linearGradient id="paint0_linear_1399_850" x1="2.34247" y1="156.729" x2="396.566" y2="156.729" gradientUnits="userSpaceOnUse">
<stop stop-color="#F9B878"/>
<stop offset="1" stop-color="#F49C81"/>
</linearGradient>
<linearGradient id="paint1_linear_1399_850" x1="-3.43749e-05" y1="123.072" x2="405" y2="123.072" gradientUnits="userSpaceOnUse">
<stop stop-color="#F7A637"/>
<stop offset="1" stop-color="#EB5C4A"/>
</linearGradient>
<clipPath id="clip0_1399_850">
<rect width="405" height="306" fill="white"/>
</clipPath>
</defs>
</svg>
